<?xml version="1.0" standalone="no"?>
<!DOCTYPE svg PUBLIC "-//W3C//DTD SVG 20010904//EN"
 "http://www.w3.org/TR/2001/REC-SVG-20010904/DTD/svg10.dtd">
<svg version="1.0" xmlns="http://www.w3.org/2000/svg"
 width="280.000000pt" height="280.000000pt" viewBox="0 0 280.000000 280.000000"
 preserveAspectRatio="xMidYMid meet">
<metadata>
Created by potrace 1.16, written by Peter Selinger 2001-2019
</metadata>
<g transform="translate(0.000000,280.000000) scale(0.100000,-0.100000)"
fill="#000000" stroke="none">
<path d="M448 2680 c-107 -18 -221 -96 -275 -187 -78 -134 -73 -312 13 -462
15 -26 156 -176 315 -336 159 -160 289 -295 289 -300 0 -6 -128 -138 -285
-295 -157 -157 -300 -306 -316 -333 -108 -167 -91 -400 39 -534 102 -105 258
-146 405 -108 121 31 145 51 465 368 l302 302 288 -286 c158 -158 307 -300
332 -316 85 -57 154 -77 266 -77 96 -1 103 1 176 36 133 66 214 185 225 331 7
88 -7 155 -50 247 -26 58 -64 100 -330 368 l-301 302 301 303 c317 319 337
343 368 464 43 163 -14 339 -140 434 -141 107 -348 110 -504 9 -25 -16 -174
-158 -331 -315 -157 -157 -289 -285 -295 -285 -5 0 -142 132 -305 294 -272
270 -301 296 -370 329 -41 20 -104 41 -140 47 -72 11 -75 11 -142 0z"/>
</g>
</svg>
