<?xml version="1.0" standalone="no"?>
<!DOCTYPE svg PUBLIC "-//W3C//DTD SVG 20010904//EN"
 "http://www.w3.org/TR/2001/REC-SVG-20010904/DTD/svg10.dtd">
<svg version="1.0" xmlns="http://www.w3.org/2000/svg"
 width="512.000000pt" height="512.000000pt" viewBox="0 0 512.000000 512.000000"
 preserveAspectRatio="xMidYMid meet">
<metadata>
Created by potrace 1.16, written by Peter Selinger 2001-2019
</metadata>
<g transform="translate(0.000000,512.000000) scale(0.100000,-0.100000)"
fill="#000000" stroke="none">
<path d="M2801 5104 c-131 -35 -265 -141 -329 -261 -17 -34 -32 -63 -32 -66 0
-3 27 -3 60 0 l60 6 0 -442 0 -441 94 0 c81 0 99 3 138 25 99 55 185 166 213
276 18 66 22 174 10 231 -22 98 -110 226 -193 279 l-42 27 30 25 c31 26 68 41
133 52 l37 6 0 149 0 150 -62 -1 c-35 0 -87 -7 -117 -15z"/>
<path d="M1389 1594 c-7 -15 -46 -57 -86 -94 -79 -74 -198 -140 -298 -165 -74
-19 -240 -19 -317 -1 -32 7 -58 11 -58 7 -1 -3 59 -306 132 -673 l133 -668
1665 0 1665 0 133 668 c73 367 133 670 132 673 0 3 -23 0 -52 -7 -70 -18 -237
-17 -318 2 -135 32 -280 123 -364 231 -23 28 -44 52 -47 52 -3 1 -20 -19 -38
-44 -64 -89 -209 -188 -338 -229 -169 -55 -392 -28 -551 66 -56 33 -175 142
-206 188 l-16 25 -27 -35 c-80 -107 -215 -204 -333 -241 -197 -61 -358 -44
-551 57 -70 37 -195 144 -218 188 -18 33 -24 33 -42 0z"/>
</g>
</svg>
