<?xml version="1.0" standalone="no"?>
<!DOCTYPE svg PUBLIC "-//W3C//DTD SVG 20010904//EN"
 "http://www.w3.org/TR/2001/REC-SVG-20010904/DTD/svg10.dtd">
<svg version="1.0" xmlns="http://www.w3.org/2000/svg"
 width="512.000000pt" height="512.000000pt" viewBox="0 0 512.000000 512.000000"
 preserveAspectRatio="xMidYMid meet">
<metadata>
Created by potrace 1.16, written by Peter Selinger 2001-2019
</metadata>
<g transform="translate(0.000000,512.000000) scale(0.100000,-0.100000)"
fill="#000000" stroke="none">
<path d="M182 3184 c-66 -33 -135 -110 -161 -180 -30 -79 -30 -250 1 -331 29
-79 112 -162 191 -191 l58 -22 2289 0 2289 0 58 22 c79 29 162 112 191 191 31
81 31 252 1 331 -26 70 -95 147 -161 180 l-52 26 -2326 0 -2326 0 -52 -26z"/>
<path d="M264 1881 c-95 -23 -184 -94 -231 -183 -27 -51 -28 -59 -28 -193 0
-134 1 -142 28 -193 54 -102 162 -179 257 -184 25 -1 192 -1 373 0 l327 2 0
264 0 265 -47 7 c-71 11 -167 -9 -222 -45 -152 -101 -237 -105 -325 -17 -50
50 -66 100 -66 210 0 83 1 82 -66 67z"/>
<path d="M4788 1792 c-6 -118 -28 -169 -96 -217 -38 -26 -52 -30 -111 -30 -63
0 -72 3 -137 46 -38 25 -82 51 -98 58 -51 22 -145 25 -215 7 -60 -15 -86 -30
-244 -142 -62 -43 -133 -64 -217 -64 -101 0 -154 21 -278 108 -124 88 -173
107 -277 107 -104 0 -153 -19 -277 -107 -134 -94 -185 -112 -302 -106 -98 5
-153 28 -251 103 -133 101 -221 128 -346 107 -84 -15 -121 -32 -219 -108 -86
-65 -139 -91 -210 -100 l-50 -7 0 -158 0 -159 1658 -2 c911 -2 1678 -2 1704
-1 99 4 211 83 265 185 27 51 28 59 28 193 0 134 -1 142 -28 193 -51 96 -152
171 -253 187 l-41 6 -5 -99z"/>
</g>
</svg>
