<?xml version="1.0" standalone="no"?>
<!DOCTYPE svg PUBLIC "-//W3C//DTD SVG 20010904//EN"
 "http://www.w3.org/TR/2001/REC-SVG-20010904/DTD/svg10.dtd">
<svg version="1.0" xmlns="http://www.w3.org/2000/svg"
 width="512.000000pt" height="512.000000pt" viewBox="0 0 512.000000 512.000000"
 preserveAspectRatio="xMidYMid meet">
<metadata>
Created by potrace 1.16, written by Peter Selinger 2001-2019
</metadata>
<g transform="translate(0.000000,512.000000) scale(0.100000,-0.100000)"
fill="#000000" stroke="none">
<path d="M1425 5106 c-85 -37 -145 -129 -145 -224 0 -90 27 -134 154 -254 202
-191 311 -363 381 -603 14 -49 24 -90 22 -92 -2 -2 -35 4 -73 13 -104 24 -287
15 -377 -18 -88 -33 -107 -51 -107 -99 0 -29 6 -42 26 -58 34 -26 42 -26 124
3 137 50 271 42 407 -24 72 -36 178 -134 169 -159 -3 -9 -15 -42 -26 -75 -40
-112 -47 -294 -14 -379 4 -11 -4 -17 -28 -22 -66 -13 -212 -93 -274 -149 l-61
-55 -44 45 c-79 81 -211 147 -331 165 -40 6 -78 13 -84 14 -22 6 -37 104 -32
206 5 91 8 106 46 182 53 108 56 128 22 165 -32 34 -82 30 -116 -10 -37 -44
-81 -143 -100 -226 -16 -66 -15 -257 1 -307 5 -18 -2 -23 -62 -43 -337 -108
-527 -476 -423 -817 35 -113 78 -183 165 -271 88 -89 196 -152 300 -175 45
-10 54 -15 49 -28 -24 -55 -43 -157 -43 -237 -2 -260 136 -486 365 -599 40
-20 96 -41 126 -47 l54 -11 -18 -52 c-26 -77 -37 -192 -27 -281 9 -93 33 -176
54 -194 14 -11 102 -34 91 -23 -2 2 7 15 20 28 26 26 30 58 14 100 -18 48 -30
154 -24 210 l7 55 49 0 c106 0 273 54 382 124 31 20 58 36 61 36 3 0 30 -16
60 -36 63 -40 172 -88 225 -99 57 -12 60 -18 60 -126 0 -169 -61 -312 -181
-425 -75 -70 -92 -78 -179 -77 -92 1 -182 29 -266 84 -70 45 -105 49 -139 14
-57 -56 -17 -118 120 -186 108 -52 179 -69 300 -69 122 0 192 17 305 72 161
79 290 243 336 428 22 88 15 282 -14 361 l-20 55 59 13 c275 62 488 341 489
642 0 65 -22 183 -44 239 -5 12 8 19 61 33 201 52 373 216 447 426 27 77 30
98 30 209 1 123 1 123 26 128 14 3 33 8 42 10 32 9 69 46 94 96 18 36 29 48
42 44 97 -30 225 -39 339 -26 173 20 213 53 240 192 18 96 13 280 -10 364
l-14 50 48 23 c27 12 61 38 76 58 27 35 28 42 26 137 -2 157 -55 323 -144 452
l-31 46 25 26 c60 63 62 128 6 243 -103 215 -280 368 -504 439 -106 34 -292
39 -407 11 -104 -25 -195 -64 -287 -125 -65 -43 -156 -130 -178 -170 -10 -19
-15 -17 -93 23 -257 134 -572 172 -879 106 -59 -13 -67 -13 -76 2 -66 105
-154 212 -265 324 -161 163 -204 189 -307 189 -37 -1 -81 -7 -98 -14z m2512
-487 c26 -6 86 -29 133 -51 70 -34 100 -55 170 -127 80 -81 160 -202 160 -243
0 -7 -22 -36 -50 -63 -67 -66 -67 -91 1 -170 88 -105 159 -285 159 -407 l0
-49 -52 -23 c-29 -13 -65 -28 -81 -34 -49 -21 -54 -52 -22 -145 30 -90 44
-236 30 -342 -8 -68 -19 -74 -150 -82 -98 -6 -173 5 -278 39 -98 32 -113 24
-156 -81 l-35 -84 -65 7 c-147 13 -279 67 -390 157 -85 69 -105 69 -177 -2
l-55 -54 -72 37 c-182 95 -304 246 -353 438 -26 102 -16 261 24 368 33 90 100
197 155 250 28 27 49 37 107 48 40 7 91 24 115 37 l43 24 82 -82 c54 -54 80
-87 75 -95 -4 -7 -30 -42 -58 -79 -64 -83 -139 -241 -169 -351 -18 -68 -22
-112 -23 -217 0 -123 2 -134 22 -154 26 -26 76 -28 103 -4 14 13 18 39 23 148
3 75 13 158 22 192 24 86 94 230 150 304 l47 64 94 -94 93 -94 -29 -60 c-42
-84 -57 -191 -42 -298 23 -167 58 -237 118 -237 39 0 74 29 74 60 0 11 -9 51
-19 90 -29 103 -35 169 -21 236 23 113 9 120 239 -109 113 -113 217 -210 231
-215 52 -19 109 32 95 85 -4 18 -81 103 -211 233 -112 113 -204 209 -204 213
0 3 26 14 57 23 71 21 180 15 277 -16 56 -18 73 -19 96 -10 26 11 50 46 50 75
0 55 -125 104 -290 112 -116 6 -187 -8 -266 -52 l-42 -22 -93 93 c-106 106
-106 96 3 169 143 97 300 145 470 145 102 0 110 1 133 25 30 29 32 64 7 95
-25 31 -111 42 -227 30 -203 -21 -387 -99 -566 -239 l-25 -20 -83 83 -83 83
26 50 c14 28 30 79 35 114 9 60 14 67 65 114 95 88 225 152 350 175 60 11 184
5 253 -11z m-1368 -479 c40 -5 98 -17 127 -27 l53 -16 -42 -46 c-24 -25 -49
-56 -57 -67 -13 -18 -28 -22 -105 -26 -52 -3 -114 -13 -147 -25 l-58 -20 -6
36 c-3 20 -11 67 -19 106 -7 38 -12 71 -10 73 4 4 126 19 165 20 14 1 58 -3
99 -8z m-45 -407 c-77 -231 -40 -492 99 -694 l45 -67 -32 -31 -32 -31 -20 21
c-32 36 -126 105 -179 131 -68 35 -179 68 -225 68 -46 0 -54 10 -69 78 -51
244 92 490 333 574 28 9 63 17 77 18 l25 0 -22 -67z m-1311 -768 c59 -12 158
-53 180 -74 4 -4 -6 -36 -22 -72 -99 -210 -99 -475 -1 -683 17 -34 30 -65 30
-68 0 -10 -125 -67 -170 -77 -63 -15 -186 -13 -246 3 -174 46 -318 193 -359
367 -64 272 107 545 379 604 80 18 127 18 209 0z m1006 0 c202 -48 353 -215
382 -422 30 -210 -81 -418 -275 -513 -94 -47 -183 -62 -289 -49 -277 34 -474
301 -427 578 48 286 328 472 609 406z m762 -222 c24 -11 57 -23 72 -27 39 -9
102 10 141 44 l33 29 34 -25 c19 -14 60 -39 92 -55 67 -34 74 -47 89 -169 9
-70 8 -99 -5 -165 -30 -148 -115 -283 -229 -366 -36 -26 -49 -29 -112 -29 -40
0 -98 7 -131 15 -59 16 -155 62 -155 75 0 4 15 40 34 81 85 186 91 426 15 621
l-18 47 48 -28 c26 -16 68 -38 92 -48z m-1310 -757 c66 -61 190 -128 272 -146
l54 -13 -18 -47 c-49 -130 -44 -327 14 -463 l20 -48 -44 -46 c-56 -58 -114
-97 -178 -122 -272 -108 -577 41 -663 322 -30 99 -23 248 16 332 29 65 39 75
74 75 79 0 280 100 351 174 19 20 37 36 39 36 2 0 31 -24 63 -54z m969 19 c76
-78 217 -152 337 -175 60 -12 62 -13 82 -60 97 -225 21 -485 -180 -619 -247
-165 -588 -79 -720 181 -74 146 -78 313 -9 447 18 37 23 40 95 56 102 22 223
85 293 150 31 30 59 54 63 55 3 0 20 -16 39 -35z"/>
</g>
</svg>
