<?xml version="1.0" standalone="no"?>
<!DOCTYPE svg PUBLIC "-//W3C//DTD SVG 20010904//EN"
 "http://www.w3.org/TR/2001/REC-SVG-20010904/DTD/svg10.dtd">
<svg version="1.0" xmlns="http://www.w3.org/2000/svg"
 width="512.000000pt" height="512.000000pt" viewBox="0 0 512.000000 512.000000"
 preserveAspectRatio="xMidYMid meet">
<metadata>
Created by potrace 1.16, written by Peter Selinger 2001-2019
</metadata>
<g transform="translate(0.000000,512.000000) scale(0.100000,-0.100000)"
fill="#000000" stroke="none">
<path d="M453 3304 c4 -21 115 -761 247 -1644 132 -883 243 -1617 246 -1632
l6 -28 1608 0 1608 0 6 28 c11 54 497 3304 494 3307 -2 1 -272 0 -600 -3
l-597 -4 -5 -42 c-2 -22 -9 -80 -15 -129 -40 -341 -296 -630 -636 -717 -104
-27 -312 -37 -423 -21 -284 42 -528 222 -652 484 -50 104 -68 173 -82 315
l-11 112 -447 0 c-246 0 -516 3 -600 7 l-153 6 6 -39z m2347 -1455 c285 -33
532 -138 672 -288 182 -192 177 -423 -12 -609 -134 -132 -334 -220 -605 -268
-149 -26 -460 -24 -615 4 -546 99 -839 421 -683 749 31 66 127 171 203 223
247 167 629 237 1040 189z"/>
</g>
</svg>
