<?xml version="1.0" standalone="no"?>
<!DOCTYPE svg PUBLIC "-//W3C//DTD SVG 20010904//EN"
 "http://www.w3.org/TR/2001/REC-SVG-20010904/DTD/svg10.dtd">
<svg version="1.0" xmlns="http://www.w3.org/2000/svg"
 width="512.000000pt" height="512.000000pt" viewBox="0 0 512.000000 512.000000"
 preserveAspectRatio="xMidYMid meet">
<metadata>
Created by potrace 1.16, written by Peter Selinger 2001-2019
</metadata>
<g transform="translate(0.000000,512.000000) scale(0.100000,-0.100000)"
fill="#000000" stroke="none">
<path d="M1455 3909 c-373 -49 -707 -293 -865 -632 -323 -689 121 -1493 875
-1586 125 -15 2697 -15 2781 0 250 46 427 294 386 542 -23 136 -101 254 -216
329 -84 54 -140 68 -306 78 -176 11 -302 41 -435 104 -170 80 -225 127 -630
527 -390 386 -448 435 -603 513 -84 42 -215 87 -322 111 -89 20 -551 30 -665
14z m307 -656 c131 -48 241 -158 291 -291 17 -45 22 -79 22 -162 0 -117 -19
-184 -73 -262 -92 -132 -217 -205 -370 -216 -277 -19 -512 201 -512 478 0 217
143 403 360 466 65 19 211 12 282 -13z"/>
<path d="M1540 3031 c-112 -36 -174 -119 -174 -231 0 -137 96 -234 234 -234
138 0 234 97 234 234 0 95 -44 169 -128 212 -43 22 -128 32 -166 19z"/>
<path d="M161 2430 c-1 -357 25 -500 134 -727 75 -157 162 -280 285 -403 217
-217 487 -357 785 -405 76 -13 307 -15 1501 -15 1375 0 1413 0 1490 20 224 56
418 211 519 415 76 152 85 207 84 504 -1 183 -4 241 -10 203 -41 -246 -212
-471 -443 -582 -169 -81 -35 -75 -1646 -75 -1342 0 -1441 1 -1523 18 -297 60
-541 190 -753 402 -232 231 -372 514 -413 835 -6 47 -9 -4 -10 -190z"/>
</g>
</svg>
