<?xml version="1.0" standalone="no"?>
<!DOCTYPE svg PUBLIC "-//W3C//DTD SVG 20010904//EN"
 "http://www.w3.org/TR/2001/REC-SVG-20010904/DTD/svg10.dtd">
<svg version="1.0" xmlns="http://www.w3.org/2000/svg"
 width="300.000000pt" height="399.000000pt" viewBox="0 0 300.000000 399.000000"
 preserveAspectRatio="xMidYMid meet">
<metadata>
Created by potrace 1.16, written by Peter Selinger 2001-2019
</metadata>
<g transform="translate(0.000000,399.000000) scale(0.100000,-0.100000)"
fill="#000000" stroke="none">
<path d="M1230 3655 c-336 -47 -530 -148 -575 -298 -43 -141 -43 -343 -2 -505
22 -86 23 -99 11 -160 -7 -37 -65 -335 -129 -662 -218 -1110 -245 -1253 -245
-1276 0 -13 12 -37 27 -54 33 -36 613 -367 657 -375 17 -3 270 -5 561 -3 l530
3 315 180 c278 159 317 184 332 216 20 40 49 -123 -247 1394 l-127 650 22 70
c28 87 39 334 21 442 -36 210 -170 303 -536 369 -128 23 -477 28 -615 9z m603
-85 c275 -47 414 -117 452 -228 43 -128 41 -355 -5 -503 l-20 -65 80 -410 c44
-225 133 -676 197 -1003 85 -435 114 -598 106 -610 -13 -20 -565 -337 -613
-352 -23 -7 -207 -9 -545 -7 l-510 3 -302 173 c-165 95 -303 178 -306 185 -3
7 51 299 119 648 295 1505 272 1373 256 1415 -62 175 -54 480 15 578 66 93
297 171 593 200 99 9 368 -4 483 -24z"/>
<path d="M1037 1345 c-65 -22 -107 -77 -107 -140 0 -33 5 -32 51 9 65 59 143
57 214 -5 36 -32 49 -26 39 18 -23 95 -111 148 -197 118z"/>
<path d="M1913 1349 c-44 -13 -90 -62 -103 -110 -16 -57 -4 -64 41 -25 68 58
156 56 214 -4 38 -40 49 -38 42 10 -12 92 -106 155 -194 129z"/>
<path d="M1352 1038 c-15 -15 -15 -95 -1 -154 30 -117 169 -169 271 -101 44
30 66 78 74 164 10 105 13 103 -175 103 -109 0 -161 -4 -169 -12z"/>
</g>
</svg>
